<svg width="20" height="20" viewBox="0 0 20 20" fill="none" xmlns="http://www.w3.org/2000/svg">
<path d="M8.33301 8.33301V4.16634C8.33301 3.94533 8.42081 3.73337 8.57709 3.57709C8.73337 3.42081 8.94533 3.33301 9.16634 3.33301H10.833C11.054 3.33301 11.266 3.42081 11.4223 3.57709C11.5785 3.73337 11.6663 3.94533 11.6663 4.16634V8.33301" stroke="black" stroke-width="1.25" stroke-linecap="round" stroke-linejoin="round"/>
<path d="M11.667 5C12.9931 5 14.2648 5.52678 15.2025 6.46447C16.1402 7.40215 16.667 8.67392 16.667 10V12.5" stroke="black" stroke-width="1.25" stroke-linecap="round" stroke-linejoin="round"/>
<path d="M3.33301 12.5V10C3.33301 8.67392 3.85979 7.40215 4.79747 6.46447C5.73516 5.52678 7.00693 5 8.33301 5" stroke="black" stroke-width="1.25" stroke-linecap="round" stroke-linejoin="round"/>
<path d="M17.5003 12.5H2.50033C2.04009 12.5 1.66699 12.8731 1.66699 13.3333V15C1.66699 15.4602 2.04009 15.8333 2.50033 15.8333H17.5003C17.9606 15.8333 18.3337 15.4602 18.3337 15V13.3333C18.3337 12.8731 17.9606 12.5 17.5003 12.5Z" stroke="black" stroke-width="1.25" stroke-linecap="round" stroke-linejoin="round"/>
</svg>
