<svg width="20" height="20" viewBox="0 0 20 20" fill="none" xmlns="http://www.w3.org/2000/svg">
<path d="M19.9764 16.9456L19.7512 16.1719C19.5952 15.6357 19.2397 15.1924 18.7501 14.9236C18.4381 14.7523 18.0953 14.6654 17.749 14.6651L17.2435 12.9284C17.1615 12.6244 16.8176 12.4356 16.5171 12.5296L16.3439 12.58L14.8263 8.7822C15.1762 8.13841 15.2827 7.36212 15.0623 6.60466C14.8475 5.86673 14.3584 5.25665 13.6849 4.88677C13.0113 4.51684 12.2341 4.43145 11.4963 4.64634C10.8747 4.82735 10.3608 5.20118 9.99997 5.68372C9.63923 5.20118 9.12521 4.82735 8.50364 4.64634C7.76591 4.43149 6.9886 4.51688 6.31509 4.88681C5.64157 5.25669 5.15243 5.8668 4.93767 6.6047C4.7172 7.36216 4.8238 8.13845 5.17364 8.78224L3.65606 12.5801L3.48282 12.5296C3.18235 12.4356 2.83841 12.6245 2.75642 12.9284L2.25095 14.6651C1.34864 14.655 0.488056 15.2966 0.248681 16.172L0.0234861 16.9456C-0.0669045 17.2563 0.111572 17.5814 0.422236 17.6718L8.33224 19.9756C8.63227 20.0697 8.97677 19.8806 9.05864 19.5768L9.28399 18.8024C9.54888 17.8922 9.1636 16.9445 8.4027 16.4575L8.90845 14.7198C8.99884 14.4092 8.82036 14.084 8.5097 13.9936L8.3363 13.9431L9.09345 9.9254C9.45345 9.72591 9.75993 9.45731 9.99993 9.13747C10.2399 9.45731 10.5464 9.72595 10.9064 9.9254L11.6636 13.9431L11.4902 13.9936C11.1795 14.084 11.001 14.4092 11.0914 14.7198L11.5972 16.4575C10.8363 16.9445 10.451 17.8922 10.7159 18.8025L10.9412 19.5768C10.9847 19.726 11.0856 19.8518 11.2218 19.9266C11.309 19.9745 11.4061 19.999 11.5038 19.999C11.5588 19.999 11.6139 19.9912 11.6676 19.9756L19.5776 17.6718C19.8883 17.5814 20.0668 17.2563 19.9764 16.9456ZM12.6985 16.0483L12.3803 14.9549C12.3803 14.9549 16.2804 13.819 16.2821 13.8185L16.6003 14.9119L12.6985 16.0483ZM3.71778 13.8185L7.61958 14.9549L7.30138 16.0483L3.39958 14.9119L3.71778 13.8185ZM8.15884 18.475L8.09724 18.6866L1.31231 16.7106L1.3738 16.4994C1.502 16.0225 2.04106 15.7263 2.51228 15.874L7.53493 17.3368C8.02036 17.479 8.3002 17.9892 8.15884 18.475ZM4.78638 12.9092L6.04427 9.76126C6.54653 10.1213 7.2111 10.3176 7.83341 10.2841L7.20591 13.6139L4.78638 12.9092ZM9.33618 7.88559C9.09821 8.77079 8.09778 9.32087 7.22302 9.0463C6.32048 8.78345 5.79997 7.83497 6.06274 6.932C6.25806 6.21759 6.96079 5.6938 7.69704 5.70251C8.81157 5.68665 9.66544 6.81669 9.33618 7.88559ZM11.824 5.7713C12.6959 5.49649 13.7003 6.04692 13.9371 6.932C14.1999 7.83497 13.6794 8.78345 12.7768 9.0463C11.9021 9.32075 10.9017 8.77075 10.6637 7.88559C10.4009 6.98266 10.9214 6.03419 11.824 5.7713ZM12.1665 10.2841C12.7887 10.3176 13.4534 10.1213 13.9556 9.76126L15.2135 12.9092L12.794 13.6138L12.1665 10.2841ZM11.9026 18.6866L11.841 18.475C11.6997 17.9892 11.9795 17.479 12.4649 17.3368L17.4876 15.874C17.9589 15.7263 18.4979 16.0225 18.6261 16.4993L18.6875 16.7106L11.9026 18.6866Z" fill="black"/>
<path d="M10 3.32016C10.3236 3.32016 10.5859 3.05785 10.5859 2.73426V0.585898C10.5859 0.262305 10.3236 0 10 0C9.67641 0 9.41406 0.262344 9.41406 0.585898V2.73422C9.4141 3.05781 9.67641 3.32016 10 3.32016Z" fill="black"/>
<path d="M6.68409 3.11218C6.85057 3.39273 7.21385 3.48 7.48725 3.31597C7.76534 3.15047 7.85659 2.7909 7.69108 2.51281L6.71452 0.872262C6.54905 0.594255 6.18944 0.502926 5.91135 0.668473C5.63327 0.833981 5.54202 1.19355 5.70753 1.47164L6.68409 3.11218Z" fill="black"/>
<path d="M12.5129 3.31603C12.7863 3.48009 13.1496 3.39278 13.3161 3.11224L14.2926 1.47169C14.4582 1.19364 14.3669 0.834034 14.0888 0.668526C13.8107 0.502901 13.4511 0.594229 13.2857 0.872315L12.3091 2.51286C12.1436 2.79095 12.2348 3.15056 12.5129 3.31603Z" fill="black"/>
<path d="M17.2266 4.84177H18.2768L17.4347 6.02313C17.2468 6.28665 17.3082 6.65251 17.5717 6.84032C17.8323 7.02684 18.2 6.96856 18.3889 6.70333L19.8912 4.59594C20.1705 4.2288 19.8751 3.65567 19.4141 3.66993H18.3638L19.2059 2.48856C19.3938 2.22505 19.3325 1.85919 19.0689 1.67137C18.8054 1.48352 18.4395 1.54485 18.2517 1.80837L16.7495 3.91575C16.6221 4.09438 16.6052 4.32919 16.7057 4.52419C16.8062 4.71923 17.0072 4.84177 17.2266 4.84177Z" fill="black"/>
<path d="M0.586179 4.84177H1.63641L0.794265 6.02313C0.606414 6.28665 0.667742 6.65251 0.931257 6.84032C1.19184 7.02684 1.55954 6.96856 1.74845 6.70333L3.25071 4.59594C3.53001 4.2288 3.23462 3.65567 2.7736 3.66993H1.72341L2.56555 2.48856C2.75341 2.22505 2.69208 1.85919 2.42856 1.67137C2.16505 1.48352 1.79915 1.54485 1.61137 1.80837L0.10907 3.91575C-0.171086 4.28305 0.124539 4.85665 0.586179 4.84177Z" fill="black"/>
</svg>
