<svg width="20" height="20" viewBox="0 0 20 20" fill="none" xmlns="http://www.w3.org/2000/svg">
<g clip-path="url(#clip0_575_830)">
<path d="M5.98485 15.4486C6.38736 14.9757 6.63009 14.3675 6.63009 13.7046C6.63009 12.202 5.3842 10.9795 3.85283 10.9795C2.32145 10.9795 1.07556 12.202 1.07556 13.7046C1.07556 14.3675 1.31829 14.9757 1.7208 15.4486C0.686985 16.1085 0 17.2657 0 18.5805V19.9966H7.70565V18.5805C7.70565 17.2657 7.01867 16.1085 5.98485 15.4486ZM3.85283 12.5414C4.52294 12.5414 5.06814 13.0632 5.06814 13.7046C5.06814 14.346 4.52294 14.8678 3.85283 14.8678C3.18271 14.8678 2.63751 14.346 2.63751 13.7046C2.63751 13.0632 3.18271 12.5414 3.85283 12.5414ZM1.56683 18.4346C1.64208 17.3164 2.57577 16.4297 3.71276 16.4297H3.99293C5.12988 16.4297 6.06361 17.3164 6.13886 18.4346H1.56683Z" fill="black"/>
<path d="M18.272 15.4486C18.6745 14.9757 18.9172 14.3675 18.9172 13.7046C18.9172 12.202 17.6713 10.9795 16.1399 10.9795C14.6086 10.9795 13.3627 12.202 13.3627 13.7046C13.3627 14.3675 13.6054 14.9757 14.0079 15.4486C12.9741 16.1085 12.2871 17.2657 12.2871 18.5805V19.9966H19.9927V18.5805C19.9928 17.2657 19.3058 16.1085 18.272 15.4486ZM16.1399 12.5414C16.8101 12.5414 17.3552 13.0632 17.3552 13.7046C17.3552 14.346 16.8101 14.8678 16.1399 14.8678C15.4698 14.8678 14.9246 14.346 14.9246 13.7046C14.9246 13.0632 15.4698 12.5414 16.1399 12.5414ZM13.854 18.4346C13.9292 17.3164 14.8629 16.4297 15.9999 16.4297H16.28C17.417 16.4297 18.3507 17.3164 18.426 18.4346H13.854Z" fill="black"/>
<path d="M13.8492 7.60487C13.8492 6.29013 13.1622 5.13288 12.1284 4.47304C12.5309 4.00008 12.7736 3.39189 12.7736 2.729C12.7736 1.22637 11.5278 0.00390625 9.99638 0.00390625C8.465 0.00390625 7.21911 1.22637 7.21911 2.729C7.21911 3.39193 7.46184 4.00012 7.86436 4.47304C6.83054 5.13288 6.14355 6.29013 6.14355 7.60487V9.02097H13.8492V7.60487H13.8492ZM9.99638 1.56582C10.6665 1.56582 11.2117 2.08759 11.2117 2.72896C11.2117 3.37034 10.6665 3.89215 9.99638 3.89215C9.32623 3.89215 8.78107 3.37034 8.78107 2.72896C8.78107 2.08759 9.32626 1.56582 9.99638 1.56582ZM7.71043 7.45902C7.78567 6.34082 8.71937 5.4541 9.85631 5.4541H10.1365C11.2734 5.4541 12.2072 6.34082 12.2824 7.45902H7.71043Z" fill="black"/>
<path d="M18.4382 8.95525H20.0002C20.0002 6.65856 18.1317 4.79004 15.835 4.79004V6.35199C17.2704 6.35199 18.4382 7.51982 18.4382 8.95525Z" fill="black"/>
<path d="M4.16522 6.35199V4.79004C1.86852 4.79004 0 6.65856 0 8.95525H1.56195C1.56195 7.51982 2.72978 6.35199 4.16522 6.35199Z" fill="black"/>
<path d="M8.42383 12.7627H11.5687V14.3246H8.42383V12.7627Z" fill="black"/>
</g>
<defs>
<clipPath id="clip0_575_830">
<rect width="20" height="20" fill="black"/>
</clipPath>
</defs>
</svg>
