<svg width="20" height="20" viewBox="0 0 20 20" fill="none" xmlns="http://www.w3.org/2000/svg">
<path d="M10.8252 5.61621L12.4335 8.48288" stroke="black" stroke-width="1.25" stroke-linecap="round" stroke-linejoin="round"/>
<path d="M15.9462 10C15.1705 10.79 14.2452 11.4176 13.2242 11.846C12.2032 12.2743 11.1071 12.495 9.99996 12.495C8.89277 12.495 7.79669 12.2743 6.77573 11.846C5.75477 11.4176 4.82941 10.79 4.05371 10" stroke="black" stroke-width="1.25" stroke-linecap="round" stroke-linejoin="round"/>
<path d="M17.5002 17.4998L15.7002 14.2998" stroke="black" stroke-width="1.25" stroke-linecap="round" stroke-linejoin="round"/>
<path d="M2.5 17.4995L9.18333 5.61621" stroke="black" stroke-width="1.25" stroke-linecap="round" stroke-linejoin="round"/>
<path d="M9.99967 5.83333C10.9201 5.83333 11.6663 5.08714 11.6663 4.16667C11.6663 3.24619 10.9201 2.5 9.99967 2.5C9.0792 2.5 8.33301 3.24619 8.33301 4.16667C8.33301 5.08714 9.0792 5.83333 9.99967 5.83333Z" stroke="black" stroke-width="1.25" stroke-linecap="round" stroke-linejoin="round"/>
</svg>
