<svg width="20" height="20" viewBox="0 0 20 20" fill="none" xmlns="http://www.w3.org/2000/svg">
<path d="M3.33301 18.3337H14.9997C15.4417 18.3337 15.8656 18.1581 16.1782 17.8455C16.4907 17.5329 16.6663 17.109 16.6663 16.667V5.83366L12.4997 1.66699H4.99967C4.55765 1.66699 4.13372 1.84259 3.82116 2.15515C3.5086 2.46771 3.33301 2.89163 3.33301 3.33366V6.66699" stroke="black" stroke-width="1.25" stroke-linecap="round" stroke-linejoin="round"/>
<path d="M11.667 1.66699V5.00033C11.667 5.44235 11.8426 5.86628 12.1551 6.17884C12.4677 6.4914 12.8916 6.66699 13.3337 6.66699H16.667" stroke="black" stroke-width="1.25" stroke-linecap="round" stroke-linejoin="round"/>
<g clip-path="url(#clip0_572_685)">
<path d="M4.00033 16.3337C5.84127 16.3337 7.33366 14.8413 7.33366 13.0003C7.33366 11.1594 5.84127 9.66699 4.00033 9.66699C2.15938 9.66699 0.666992 11.1594 0.666992 13.0003C0.666992 14.8413 2.15938 16.3337 4.00033 16.3337Z" stroke="black" stroke-linecap="round" stroke-linejoin="round"/>
<path d="M4 14.3333V13" stroke="black" stroke-linecap="round" stroke-linejoin="round"/>
<path d="M4 11.667H4.004" stroke="black" stroke-linecap="round" stroke-linejoin="round"/>
</g>
<defs>
<clipPath id="clip0_572_685">
<rect width="8" height="8" fill="black" transform="translate(0 9)"/>
</clipPath>
</defs>
</svg>
