<svg width="20" height="20" viewBox="0 0 20 20" fill="none" xmlns="http://www.w3.org/2000/svg">
<path d="M11.667 1.66699V5.00033C11.667 5.44235 11.8426 5.86628 12.1551 6.17884C12.4677 6.4914 12.8916 6.66699 13.3337 6.66699H16.667" stroke="black" stroke-width="1.25" stroke-linecap="round" stroke-linejoin="round"/>
<path d="M2.66699 10.7503L1.91699 10.417" stroke="black" stroke-width="1.25" stroke-linecap="round" stroke-linejoin="round"/>
<path d="M2.66699 12.583L1.91699 12.9163" stroke="black" stroke-width="1.25" stroke-linecap="round" stroke-linejoin="round"/>
<path d="M3.89717 17.917C4.19951 18.1836 4.58823 18.3317 4.99134 18.3337H14.9997C15.4417 18.3337 15.8656 18.1581 16.1782 17.8455C16.4907 17.5329 16.6663 17.109 16.6663 16.667V5.83366L12.4997 1.66699H4.99967C4.55765 1.66699 4.13372 1.84259 3.82116 2.15515C3.5086 2.46771 3.33301 2.89163 3.33301 3.33366V5.41699" stroke="black" stroke-width="1.25" stroke-linecap="round" stroke-linejoin="round"/>
<path d="M4.08333 9.33301L3.75 8.58301" stroke="black" stroke-width="1.25" stroke-linecap="round" stroke-linejoin="round"/>
<path d="M4.08333 14L3.75 14.75" stroke="black" stroke-width="1.25" stroke-linecap="round" stroke-linejoin="round"/>
<path d="M6.25033 8.58301L5.91699 9.33301" stroke="black" stroke-width="1.25" stroke-linecap="round" stroke-linejoin="round"/>
<path d="M6.25033 14.75L5.91699 14" stroke="black" stroke-width="1.25" stroke-linecap="round" stroke-linejoin="round"/>
<path d="M8.08301 10.417L7.33301 10.7503" stroke="black" stroke-width="1.25" stroke-linecap="round" stroke-linejoin="round"/>
<path d="M8.08301 12.9163L7.33301 12.583" stroke="black" stroke-width="1.25" stroke-linecap="round" stroke-linejoin="round"/>
<path d="M5 14.167C6.38071 14.167 7.5 13.0477 7.5 11.667C7.5 10.2863 6.38071 9.16699 5 9.16699C3.61929 9.16699 2.5 10.2863 2.5 11.667C2.5 13.0477 3.61929 14.167 5 14.167Z" stroke="black" stroke-width="1.25" stroke-linecap="round" stroke-linejoin="round"/>
</svg>
