<svg width="23" height="28" viewBox="0 0 23 28" fill="none" xmlns="http://www.w3.org/2000/svg">
<path d="M11.4988 27.1406L9.10856 22.6556L13.889 22.6556L11.4988 27.1406Z" fill="#D9D9D9"/>
<path d="M11.499 25.99L13.109 22.77L11.499 22.54V25.99Z" fill="#768EC8"/>
<circle cx="11.5" cy="11.5" r="11.5" fill="#768EC8"/>
<circle cx="11.5" cy="11.5" r="10.5" fill="#D9D9D9"/>
<path d="M16.6546 6.59749L16.991 6.01479L12.3303 3.32391L11.6575 4.48914L11.1649 2.65151L10 1.97852L7.98166 5.47438L9.14702 6.1465L10.9848 5.65437L10.3119 6.81977L11.7685 7.66073L6.21865 17.2734C5.94075 17.7547 6.10666 18.3739 6.588 18.6518C7.06933 18.9297 7.68851 18.7638 7.96641 18.2825L13.5163 8.6698L14.9727 9.51065L15.3092 8.92778C16.9175 9.85632 17.7706 11.3917 17.2129 12.3577L17.7955 12.694C19.0961 10.4412 18.5845 7.7117 16.6546 6.59749ZM14.4803 7.6725L12.15 6.32711L12.8228 5.16188L15.1531 6.50727L14.4803 7.6725Z" fill="#3D52A0"/>
</svg>
