<svg width="23" height="28" viewBox="0 0 23 28" fill="none" xmlns="http://www.w3.org/2000/svg">
<path d="M11.4988 27.1406L9.10856 22.6556L13.889 22.6556L11.4988 27.1406Z" fill="#D9D9D9"/>
<path d="M11.499 25.99L13.109 22.77L11.499 22.54V25.99Z" fill="#768EC8"/>
<circle cx="11.5" cy="11.5" r="11.5" fill="#768EC8"/>
<circle cx="11.5" cy="11.5" r="10.5" fill="#D9D9D9"/>
<path d="M10.8668 16.6817L12.3927 18.2076C12.5429 18.3579 12.7214 18.4771 12.9177 18.5585C13.1141 18.6398 13.3245 18.6817 13.5371 18.6817C13.7496 18.6817 13.9601 18.6398 14.1564 18.5585C14.3528 18.4771 14.5312 18.3579 14.6815 18.2076C14.8318 18.0573 14.951 17.8789 15.0323 17.6826C15.1137 17.4862 15.1555 17.2757 15.1555 17.0632C15.1555 16.8507 15.1137 16.6402 15.0323 16.4438C14.951 16.2475 14.8318 16.0691 14.6815 15.9188M13.1552 14.3928L15.0626 16.3002C15.3661 16.6037 15.7778 16.7742 16.207 16.7742C16.6363 16.7742 17.0479 16.6037 17.3514 16.3002C17.655 15.9967 17.8255 15.585 17.8255 15.1558C17.8255 14.7265 17.655 14.3149 17.3514 14.0113L14.3912 11.0511C13.962 10.6225 13.3803 10.3817 12.7738 10.3817C12.1672 10.3817 11.5855 10.6225 11.1563 11.0511L10.4849 11.7225C10.1814 12.026 9.76973 12.1965 9.34048 12.1965C8.91124 12.1965 8.49958 12.026 8.19606 11.7225C7.89254 11.419 7.72202 11.0073 7.72202 10.5781C7.72202 10.1488 7.89254 9.73717 8.19606 9.43365L10.3399 7.28977C11.0359 6.59559 11.9436 6.15339 12.9192 6.03317C13.8948 5.91295 14.8827 6.12156 15.7264 6.626L16.085 6.83963C16.4098 7.0357 16.7961 7.1037 17.1683 7.03036L18.4959 6.76333M18.4965 6L19.2594 14.3924H17.7335M4.76295 6L4 14.3924L8.95917 19.3516C9.26269 19.6551 9.67435 19.8256 10.1036 19.8256C10.5328 19.8256 10.9445 19.6551 11.248 19.3516C11.5515 19.0481 11.7221 18.6364 11.7221 18.2072C11.7221 17.7779 11.5515 17.3663 11.248 17.0628M4.76273 6.76273H10.8663" stroke="#3D52A0" stroke-width="1.25" stroke-linecap="round" stroke-linejoin="round"/>
</svg>
