<svg width="19" height="22" viewBox="0 0 19 22" fill="none" xmlns="http://www.w3.org/2000/svg">
<path d="M14 4.99915L5.58602 13.5851C5.21108 13.9602 5.00045 14.4688 5.00045 14.9991C5.00045 15.5295 5.21108 16.0381 5.58602 16.4131C5.96107 16.7881 6.46969 16.9987 7.00002 16.9987C7.53035 16.9987 8.03896 16.7881 8.41402 16.4131L16.828 7.82715C17.5779 7.07703 17.9992 6.0598 17.9992 4.99915C17.9992 3.93849 17.5779 2.92126 16.828 2.17115C16.0779 1.42126 15.0607 1 14 1C12.9394 1 11.9221 1.42126 11.172 2.17115L2.75702 10.7561C1.63171 11.8815 0.999512 13.4077 0.999512 14.9991C0.999512 16.5906 1.63171 18.1168 2.75702 19.2421C3.88233 20.3675 5.40859 20.9997 7.00002 20.9997C8.59145 20.9997 10.1177 20.3675 11.243 19.2421" stroke="#3D52A0" stroke-width="2" stroke-linecap="round" stroke-linejoin="round"/>
</svg>
