<svg width="23" height="28" viewBox="0 0 23 28" fill="none" xmlns="http://www.w3.org/2000/svg">
<path d="M11.4988 27.1406L9.10856 22.6556L13.889 22.6556L11.4988 27.1406Z" fill="#D9D9D9"/>
<path d="M11.499 25.99L13.109 22.77L11.499 22.54V25.99Z" fill="#768EC8"/>
<circle cx="11.5" cy="11.5" r="11.5" fill="#768EC8"/>
<circle cx="11.5" cy="11.5" r="10.5" fill="#D9D9D9"/>
<path d="M18.9824 16.7091L18.8135 16.1288C18.6964 15.7266 18.4298 15.3941 18.0627 15.1926C17.8286 15.0641 17.5716 14.9989 17.3118 14.9986L16.9327 13.6961C16.8712 13.4681 16.6133 13.3265 16.3879 13.397L16.258 13.4348L15.1198 10.5864C15.3822 10.1035 15.4621 9.52131 15.2968 8.95321C15.1357 8.39975 14.7688 7.94218 14.2637 7.66477C13.7586 7.38732 13.1756 7.32327 12.6223 7.48444C12.1561 7.6202 11.7706 7.90058 11.5 8.26249C11.2295 7.90058 10.8439 7.6202 10.3778 7.48444C9.82446 7.3233 9.24148 7.38735 8.73634 7.66479C8.2312 7.94221 7.86434 8.39981 7.70327 8.95324C7.53792 9.52134 7.61787 10.1036 7.88025 10.5864L6.74206 13.4349L6.61213 13.397C6.38678 13.3265 6.12882 13.4681 6.06732 13.6961L5.68822 14.9987C5.01149 14.9911 4.36604 15.4723 4.18651 16.1288L4.01761 16.7091C3.94982 16.9421 4.08368 17.1859 4.31668 17.2538L10.2492 18.9816C10.4742 19.0522 10.7326 18.9104 10.794 18.6825L10.963 18.1017C11.1617 17.419 10.8727 16.7082 10.3021 16.343L10.6814 15.0397C10.7492 14.8067 10.6153 14.5628 10.3823 14.495L10.2523 14.4571L10.8201 11.4438C11.0901 11.2942 11.32 11.0927 11.5 10.8529C11.68 11.0927 11.9099 11.2942 12.1799 11.4438L12.7477 14.4571L12.6177 14.495C12.3847 14.5628 12.2508 14.8067 12.3186 15.0397L12.6979 16.343C12.1272 16.7082 11.8383 17.419 12.0369 18.1017L12.206 18.6825C12.2385 18.7944 12.3142 18.8888 12.4164 18.9449C12.4818 18.9808 12.5546 18.9991 12.6279 18.9991C12.6691 18.9991 12.7105 18.9933 12.7508 18.9816L18.6833 17.2538C18.9163 17.1859 19.0502 16.9421 18.9824 16.7091ZM13.5239 16.036L13.2853 15.216L16.2117 14.3637L16.4503 15.1837L13.5239 16.036ZM6.78835 14.3637L9.71471 15.216L9.47606 16.036L6.5497 15.1837L6.78835 14.3637ZM10.1192 17.8561L10.073 18.0149L4.98424 16.5328L5.03035 16.3744C5.12651 16.0168 5.53081 15.7946 5.88422 15.9054L9.65123 17.0025C10.0153 17.1091 10.2252 17.4918 10.1192 17.8561ZM7.5898 13.6817L8.53322 11.3207C8.90992 11.5907 9.40835 11.738 9.87508 11.7129L9.40446 14.2102L7.5898 13.6817ZM11.0022 9.91393C10.8237 10.5778 10.0734 10.9904 9.41729 10.7845C8.74038 10.5873 8.35 9.87596 8.54708 9.19872C8.69357 8.6629 9.22062 8.27005 9.77281 8.27658C10.6087 8.26469 11.2491 9.11223 11.0022 9.91393ZM12.868 8.32818C13.522 8.12207 14.2753 8.5349 14.4529 9.19872C14.65 9.87596 14.2596 10.5873 13.5827 10.7845C12.9266 10.9903 12.1763 10.5778 11.9978 9.91393C11.8007 9.23672 12.1911 8.52535 12.868 8.32818ZM13.1249 11.7129C13.5916 11.738 14.0901 11.5908 14.4668 11.3207L15.4102 13.6817L13.5956 14.2102L13.1249 11.7129ZM12.927 18.0149L12.8808 17.8562C12.7748 17.4918 12.9847 17.1091 13.3487 17.0025L17.1158 15.9053C17.4692 15.7946 17.8735 16.0167 17.9696 16.3744L18.0157 16.5328L12.927 18.0149Z" fill="#3D52A0"/>
<path d="M11.5 6.49016C11.7427 6.49016 11.9395 6.29343 11.9395 6.05073V4.43943C11.9395 4.19673 11.7427 4 11.5 4C11.2573 4 11.0605 4.19676 11.0605 4.43943V6.0507C11.0606 6.2934 11.2573 6.49016 11.5 6.49016Z" fill="#3D52A0"/>
<path d="M9.01307 6.33417C9.13793 6.54459 9.4104 6.61004 9.61545 6.48702C9.82401 6.36288 9.89245 6.0932 9.76832 5.88463L9.03589 4.6542C8.91179 4.44569 8.64208 4.37719 8.43352 4.50136C8.22495 4.62549 8.15651 4.89517 8.28064 5.10374L9.01307 6.33417Z" fill="#3D52A0"/>
<path d="M13.3847 6.48706C13.5897 6.61011 13.8622 6.54463 13.9871 6.33421L14.7195 5.10378C14.8436 4.89524 14.7752 4.62553 14.5666 4.5014C14.358 4.37717 14.0883 4.44567 13.9642 4.65424L13.2318 5.88467C13.1077 6.09324 13.1761 6.36295 13.3847 6.48706Z" fill="#3D52A0"/>
<path d="M16.92 7.53092H17.7076L17.076 8.41697C16.9351 8.61461 16.9811 8.889 17.1788 9.02987C17.3742 9.16976 17.65 9.12605 17.7917 8.92712L18.9184 7.34655C19.1279 7.07119 18.9063 6.64134 18.5606 6.65203H17.7728L18.4045 5.76599C18.5454 5.56835 18.4994 5.29395 18.3017 5.15309C18.1041 5.01219 17.8296 5.05819 17.6888 5.25583L16.5621 6.8364C16.4666 6.97038 16.4539 7.14648 16.5293 7.29274C16.6047 7.43902 16.7554 7.53092 16.92 7.53092Z" fill="#3D52A0"/>
<path d="M4.43964 7.53092H5.22732L4.5957 8.41697C4.45481 8.61461 4.50081 8.889 4.69845 9.02987C4.89389 9.16976 5.16966 9.12605 5.31134 8.92712L6.43805 7.34655C6.64752 7.07119 6.42597 6.64134 6.08021 6.65203H5.29256L5.92418 5.76599C6.06507 5.56835 6.01907 5.29395 5.82143 5.15309C5.62379 5.01219 5.34937 5.05819 5.20854 5.25583L4.0818 6.8364C3.87168 7.11188 4.0934 7.54209 4.43964 7.53092Z" fill="#3D52A0"/>
</svg>
