<svg width="23" height="28" viewBox="0 0 23 28" fill="none" xmlns="http://www.w3.org/2000/svg">
<path d="M11.4988 27.1406L9.10856 22.6556L13.889 22.6556L11.4988 27.1406Z" fill="#D9D9D9"/>
<path d="M11.499 25.99L13.109 22.77L11.499 22.54V25.99Z" fill="#768EC8"/>
<circle cx="11.5" cy="11.5" r="11.5" fill="#768EC8"/>
<circle cx="11.5" cy="11.5" r="10.5" fill="#D9D9D9"/>
<path d="M8.28796 14.3556C8.60997 13.9773 8.80416 13.4907 8.80416 12.9604C8.80416 11.7583 7.80743 10.7803 6.58231 10.7803C5.35719 10.7803 4.36046 11.7583 4.36046 12.9604C4.36046 13.4907 4.55465 13.9773 4.87666 14.3556C4.0496 14.8835 3.5 15.8093 3.5 16.8612V17.9941H9.66462V16.8612C9.66462 15.8093 9.11502 14.8835 8.28796 14.3556ZM6.58231 12.0299C7.11841 12.0299 7.55458 12.4473 7.55458 12.9604C7.55458 13.4735 7.11841 13.8909 6.58231 13.8909C6.04621 13.8909 5.61004 13.4735 5.61004 12.9604C5.61004 12.4473 6.04621 12.0299 6.58231 12.0299ZM4.75349 16.7445C4.81368 15.8499 5.56065 15.1405 6.47025 15.1405H6.6944C7.60397 15.1405 8.35097 15.8499 8.41116 16.7445H4.75349Z" fill="#3D52A0"/>
<path d="M18.1171 14.3556C18.4391 13.9773 18.6333 13.4907 18.6333 12.9604C18.6333 11.7583 17.6365 10.7803 16.4114 10.7803C15.1863 10.7803 14.1896 11.7583 14.1896 12.9604C14.1896 13.4907 14.3837 13.9773 14.7058 14.3556C13.8787 14.8835 13.3291 15.8093 13.3291 16.8611V17.994H19.4937V16.8611C19.4937 15.8093 18.9441 14.8835 18.1171 14.3556ZM16.4114 12.0299C16.9475 12.0299 17.3837 12.4473 17.3837 12.9604C17.3837 13.4735 16.9475 13.8909 16.4114 13.8909C15.8753 13.8909 15.4391 13.4735 15.4391 12.9604C15.4391 12.4473 15.8753 12.0299 16.4114 12.0299ZM14.5826 16.7445C14.6428 15.8499 15.3898 15.1405 16.2994 15.1405H16.5235C17.4331 15.1405 18.1801 15.8499 18.2403 16.7445H14.5826Z" fill="#3D52A0"/>
<path d="M14.5799 8.08087C14.5799 7.02906 14.0303 6.10325 13.2032 5.57536C13.5252 5.19699 13.7194 4.71043 13.7194 4.18011C13.7194 2.97798 12.7227 2 11.4976 2C10.2724 2 9.27571 2.97798 9.27571 4.18011C9.27571 4.71047 9.46989 5.19702 9.79191 5.57536C8.96484 6.10325 8.41525 7.02906 8.41525 8.08087V9.21377H14.5798L14.5799 8.08087ZM11.4976 3.24955C12.0337 3.24955 12.4698 3.66697 12.4698 4.18008C12.4698 4.69319 12.0337 5.11064 11.4976 5.11064C10.9614 5.11064 10.5253 4.69319 10.5253 4.18008C10.5253 3.66697 10.9615 3.24955 11.4976 3.24955ZM9.66876 7.96419C9.72896 7.06961 10.4759 6.36022 11.3855 6.36022H11.6096C12.5192 6.36022 13.2662 7.06961 13.3264 7.96419H9.66876Z" fill="#3D52A0"/>
<path d="M18.2504 9.1611H19.5C19.5 7.32371 18.0052 5.82887 16.1678 5.82887V7.07845C17.3161 7.07845 18.2504 8.01273 18.2504 9.1611Z" fill="#3D52A0"/>
<path d="M6.83223 7.07845V5.82887C4.99484 5.82887 3.5 7.32371 3.5 9.1611H4.74958C4.74958 8.01273 5.68386 7.07845 6.83223 7.07845Z" fill="#3D52A0"/>
<path d="M10.2393 12.208H12.7552V13.4576H10.2393V12.208Z" fill="#3D52A0"/>
</svg>
