<svg width="23" height="28" viewBox="0 0 23 28" fill="none" xmlns="http://www.w3.org/2000/svg">
<path d="M11.4988 27.1406L9.10856 22.6556L13.889 22.6556L11.4988 27.1406Z" fill="#D9D9D9"/>
<path d="M11.499 25.99L13.109 22.77L11.499 22.54V25.99Z" fill="#768EC8"/>
<circle cx="11.5" cy="11.5" r="11.5" fill="#768EC8"/>
<circle cx="11.5" cy="11.5" r="10.5" fill="#D9D9D9"/>
<path d="M12.3252 5.11621L13.9335 7.98288M17.4462 9.5C16.6705 10.29 15.7452 10.9176 14.7242 11.346C13.7032 11.7743 12.6071 11.995 11.5 11.995C10.3928 11.995 9.29669 11.7743 8.27573 11.346C7.25477 10.9176 6.32941 10.29 5.55371 9.5M19.0002 16.9998L17.2002 13.7998M4 16.9995L10.6833 5.11621M13.1663 3.66667C13.1663 4.58714 12.4201 5.33333 11.4997 5.33333C10.5792 5.33333 9.83301 4.58714 9.83301 3.66667C9.83301 2.74619 10.5792 2 11.4997 2C12.4201 2 13.1663 2.74619 13.1663 3.66667Z" stroke="#3D52A0" stroke-width="1.25" stroke-linecap="round" stroke-linejoin="round"/>
</svg>
