<svg width="24" height="24" viewBox="0 0 24 24" fill="none" xmlns="http://www.w3.org/2000/svg">
<path d="M3.875 1C2.839 1 2 1.84 2 2.875V20.125C2 21.16 2.84 22 3.875 22H16.625C17.66 22 18.5 21.16 18.5 20.125V12.25C18.5 11.2554 18.1049 10.3016 17.4017 9.59835C16.6984 8.89509 15.7446 8.5 14.75 8.5H12.875C12.3777 8.5 11.9008 8.30246 11.5492 7.95083C11.1975 7.5992 11 7.12228 11 6.625V4.75C11 3.75544 10.6049 2.80161 9.90165 2.09835C9.19839 1.39509 8.24456 1 7.25 1H3.875Z" fill="#8697C4"/>
<path d="M11.2212 1.31592C12.0477 2.26888 12.5019 3.48846 12.5002 4.74992V6.62492C12.5002 6.83192 12.6682 6.99992 12.8752 6.99992H14.7502C16.0116 6.99817 17.2312 7.4524 18.1842 8.27892C17.7442 6.60563 16.8677 5.07922 15.6443 3.8558C14.4209 2.63239 12.8945 1.75588 11.2212 1.31592Z" fill="#8697C4"/>
<path d="M3.875 1C2.839 1 2 1.84 2 2.875V20.125C2 21.16 2.84 22 3.875 22H16.625C17.66 22 18.5 21.16 18.5 20.125V12.25C18.5 11.2554 18.1049 10.3016 17.4017 9.59835C16.6984 8.89509 15.7446 8.5 14.75 8.5H12.875C12.3777 8.5 11.9008 8.30246 11.5492 7.95083C11.1975 7.5992 11 7.12228 11 6.625V4.75C11 3.75544 10.6049 2.80161 9.90165 2.09835C9.19839 1.39509 8.24456 1 7.25 1H3.875Z" fill="#8697C4"/>
<path d="M11.2212 1.31592C12.0477 2.26888 12.5019 3.48846 12.5002 4.74992V6.62492C12.5002 6.83192 12.6682 6.99992 12.8752 6.99992H14.7502C16.0116 6.99817 17.2312 7.4524 18.1842 8.27892C17.7442 6.60563 16.8677 5.07922 15.6443 3.8558C14.4209 2.63239 12.8945 1.75588 11.2212 1.31592Z" fill="#8697C4"/>
<path d="M3.875 1C2.839 1 2 1.84 2 2.875V20.125C2 21.16 2.84 22 3.875 22H16.625C17.66 22 18.5 21.16 18.5 20.125V12.25C18.5 11.2554 18.1049 10.3016 17.4017 9.59835C16.6984 8.89509 15.7446 8.5 14.75 8.5H12.875C12.3777 8.5 11.9008 8.30246 11.5492 7.95083C11.1975 7.5992 11 7.12228 11 6.625V4.75C11 3.75544 10.6049 2.80161 9.90165 2.09835C9.19839 1.39509 8.24456 1 7.25 1H3.875Z" fill="#8697C4"/>
<path d="M11.2212 1.31592C12.0477 2.26888 12.5019 3.48846 12.5002 4.74992V6.62492C12.5002 6.83192 12.6682 6.99992 12.8752 6.99992H14.7502C16.0116 6.99817 17.2312 7.4524 18.1842 8.27892C17.7442 6.60563 16.8677 5.07922 15.6443 3.8558C14.4209 2.63239 12.8945 1.75588 11.2212 1.31592Z" fill="#8697C4"/>
<path d="M3.875 1C2.839 1 2 1.84 2 2.875V20.125C2 21.16 2.84 22 3.875 22H16.625C17.66 22 18.5 21.16 18.5 20.125V12.25C18.5 11.2554 18.1049 10.3016 17.4017 9.59835C16.6984 8.89509 15.7446 8.5 14.75 8.5H12.875C12.3777 8.5 11.9008 8.30246 11.5492 7.95083C11.1975 7.5992 11 7.12228 11 6.625V4.75C11 3.75544 10.6049 2.80161 9.90165 2.09835C9.19839 1.39509 8.24456 1 7.25 1H3.875Z" fill="#8697C4"/>
<path d="M11.2212 1.31592C12.0477 2.26888 12.5019 3.48846 12.5002 4.74992V6.62492C12.5002 6.83192 12.6682 6.99992 12.8752 6.99992H14.7502C16.0116 6.99817 17.2312 7.4524 18.1842 8.27892C17.7442 6.60563 16.8677 5.07922 15.6443 3.8558C14.4209 2.63239 12.8945 1.75588 11.2212 1.31592Z" fill="#8697C4"/>
<path d="M3.875 1C2.839 1 2 1.84 2 2.875V20.125C2 21.16 2.84 22 3.875 22H16.625C17.66 22 18.5 21.16 18.5 20.125V12.25C18.5 11.2554 18.1049 10.3016 17.4017 9.59835C16.6984 8.89509 15.7446 8.5 14.75 8.5H12.875C12.3777 8.5 11.9008 8.30246 11.5492 7.95083C11.1975 7.5992 11 7.12228 11 6.625V4.75C11 3.75544 10.6049 2.80161 9.90165 2.09835C9.19839 1.39509 8.24456 1 7.25 1H3.875Z" fill="#8697C4"/>
<path d="M11.2212 1.31592C12.0477 2.26888 12.5019 3.48846 12.5002 4.74992V6.62492C12.5002 6.83192 12.6682 6.99992 12.8752 6.99992H14.7502C16.0116 6.99817 17.2312 7.4524 18.1842 8.27892C17.7442 6.60563 16.8677 5.07922 15.6443 3.8558C14.4209 2.63239 12.8945 1.75588 11.2212 1.31592Z" fill="#8697C4"/>
<path d="M3.875 1C2.839 1 2 1.84 2 2.875V20.125C2 21.16 2.84 22 3.875 22H16.625C17.66 22 18.5 21.16 18.5 20.125V12.25C18.5 11.2554 18.1049 10.3016 17.4017 9.59835C16.6984 8.89509 15.7446 8.5 14.75 8.5H12.875C12.3777 8.5 11.9008 8.30246 11.5492 7.95083C11.1975 7.5992 11 7.12228 11 6.625V4.75C11 3.75544 10.6049 2.80161 9.90165 2.09835C9.19839 1.39509 8.24456 1 7.25 1H3.875Z" fill="#8697C4"/>
<path d="M11.2212 1.31592C12.0477 2.26888 12.5019 3.48846 12.5002 4.74992V6.62492C12.5002 6.83192 12.6682 6.99992 12.8752 6.99992H14.7502C16.0116 6.99817 17.2312 7.4524 18.1842 8.27892C17.7442 6.60563 16.8677 5.07922 15.6443 3.8558C14.4209 2.63239 12.8945 1.75588 11.2212 1.31592Z" fill="#8697C4"/>
<path d="M3.875 1C2.839 1 2 1.84 2 2.875V20.125C2 21.16 2.84 22 3.875 22H16.625C17.66 22 18.5 21.16 18.5 20.125V12.25C18.5 11.2554 18.1049 10.3016 17.4017 9.59835C16.6984 8.89509 15.7446 8.5 14.75 8.5H12.875C12.3777 8.5 11.9008 8.30246 11.5492 7.95083C11.1975 7.5992 11 7.12228 11 6.625V4.75C11 3.75544 10.6049 2.80161 9.90165 2.09835C9.19839 1.39509 8.24456 1 7.25 1H3.875Z" fill="#8697C4"/>
<path d="M11.2212 1.31592C12.0477 2.26888 12.5019 3.48846 12.5002 4.74992V6.62492C12.5002 6.83192 12.6682 6.99992 12.8752 6.99992H14.7502C16.0116 6.99817 17.2312 7.4524 18.1842 8.27892C17.7442 6.60563 16.8677 5.07922 15.6443 3.8558C14.4209 2.63239 12.8945 1.75588 11.2212 1.31592Z" fill="#8697C4"/>
<path d="M3.875 1C2.839 1 2 1.84 2 2.875V20.125C2 21.16 2.84 22 3.875 22H16.625C17.66 22 18.5 21.16 18.5 20.125V12.25C18.5 11.2554 18.1049 10.3016 17.4017 9.59835C16.6984 8.89509 15.7446 8.5 14.75 8.5H12.875C12.3777 8.5 11.9008 8.30246 11.5492 7.95083C11.1975 7.5992 11 7.12228 11 6.625V4.75C11 3.75544 10.6049 2.80161 9.90165 2.09835C9.19839 1.39509 8.24456 1 7.25 1H3.875Z" fill="#8697C4"/>
<path d="M11.2212 1.31592C12.0477 2.26888 12.5019 3.48846 12.5002 4.74992V6.62492C12.5002 6.83192 12.6682 6.99992 12.8752 6.99992H14.7502C16.0116 6.99817 17.2312 7.4524 18.1842 8.27892C17.7442 6.60563 16.8677 5.07922 15.6443 3.8558C14.4209 2.63239 12.8945 1.75588 11.2212 1.31592Z" fill="#8697C4"/>
</svg>
