<svg width="23" height="28" viewBox="0 0 23 28" fill="none" xmlns="http://www.w3.org/2000/svg">
<path d="M11.4988 27.1406L9.10856 22.6556L13.889 22.6556L11.4988 27.1406Z" fill="#D9D9D9"/>
<path d="M11.499 25.99L13.109 22.77L11.499 22.54V25.99Z" fill="#768EC8"/>
<circle cx="11.5" cy="11.5" r="11.5" fill="#768EC8"/>
<circle cx="11.5" cy="11.5" r="10.5" fill="#D9D9D9"/>
<path d="M6 19H16.5C16.8978 19 17.2794 18.8314 17.5607 18.5314C17.842 18.2313 18 17.8243 18 17.4V7L14.25 3H7.5C7.10218 3 6.72064 3.16857 6.43934 3.46863C6.15804 3.76869 6 4.17565 6 4.6V7.8M14 3V7C14 7.53043 14.1405 8.03914 14.3905 8.41421C14.6406 8.78929 14.9797 9 15.3333 9H18M6.99519 14.3477V13.1495M6.99519 11.9516H6.99919M9.99096 13.1498C9.99096 14.8041 8.64984 16.1453 6.99548 16.1453C5.34112 16.1453 4 14.8041 4 13.1498C4 11.4954 5.34112 10.1543 6.99548 10.1543C8.64984 10.1543 9.99096 11.4954 9.99096 13.1498Z" stroke="#3D52A0" stroke-linecap="round" stroke-linejoin="round"/>
</svg>
