<svg width="119" height="139" viewBox="0 0 119 139" fill="none" xmlns="http://www.w3.org/2000/svg">
<path d="M59.796 139L47.5543 116.03L72.0378 116.03L59.796 139Z" fill="#D9D9D9"/>
<path d="M59.7959 133.11L68.0417 116.618L59.7959 115.44V133.11Z" fill="#768EC8"/>
<circle cx="59.7967" cy="58.8983" r="58.8983" fill="#768EC8"/>
<circle cx="59.7973" cy="58.8983" r="56.5424" fill="#D9D9D9"/>
<path d="M49.6641 104.832L78.7795 75.9981C83.5104 71.3015 86.1665 64.9439 86.1665 58.3164C86.1665 51.689 83.5104 45.3314 78.7795 40.6348L94.0345 25.5566C101.381 32.7798 106.145 42.173 107.605 52.313C109.065 62.4529 107.141 72.7869 102.125 81.749C97.1091 90.7112 89.2741 97.8129 79.8074 101.978C70.3408 106.143 59.7585 107.145 49.6641 104.832Z" fill="#3D52A0"/>
<path d="M70.1003 68.587C75.5348 63.2584 75.57 54.5843 70.1789 49.2127C64.7879 43.8412 56.012 43.8064 50.5774 49.135C45.1429 54.4635 45.1076 63.1377 50.4987 68.5092C55.8898 73.8808 64.6657 73.9156 70.1003 68.587Z" fill="#768EC8"/>
<path d="M77.6661 40.6486C75.2253 38.2308 72.3079 36.3344 69.095 35.0771C65.882 33.8197 62.442 33.2282 58.9882 33.3392C57.5245 33.3967 56.0643 33.1571 54.6979 32.635C53.3315 32.113 52.0879 31.3197 51.0438 30.3041L50.7762 30.0396C49.3003 28.5833 48.283 26.7355 47.8474 24.7198C47.4118 22.704 47.5765 20.6067 48.3216 18.6815C49.0667 16.7564 50.3603 15.0859 52.0459 13.8722C53.7314 12.6585 55.7367 11.9536 57.8191 11.8428C65.182 11.466 72.5328 12.7831 79.2934 15.6903C86.054 18.5975 92.04 23.0155 96.7802 28.5969C101.521 34.1783 104.886 40.7707 106.612 47.8555C108.337 54.9403 108.376 62.3243 106.725 69.4265L77.6661 40.6486Z" fill="#768EC8"/>
<path d="M49.6641 104.832L60.3411 94.2784L63.6936 90.9092L71.0041 104.832C63.9507 106.123 56.7175 106.123 49.6641 104.832Z" fill="#2556A5"/>
<path d="M41.9022 75.9983L71.0036 104.832C63.8132 106.465 56.3374 106.426 49.1649 104.717C41.9925 103.009 35.3194 99.6774 29.6714 94.9857C24.0234 90.294 19.5547 84.3701 16.6173 77.6807C13.68 70.9913 12.3542 63.7191 12.7445 56.4371C12.8566 54.3788 13.5697 52.3968 14.7977 50.7308C16.0256 49.0648 17.7157 47.7862 19.6634 47.0497C21.6112 46.3132 23.7331 46.1504 25.7725 46.581C27.8119 47.0115 29.6813 48.017 31.1547 49.4758L31.4223 49.7403C32.4376 50.7609 33.2331 51.9742 33.7608 53.3071C34.2886 54.6399 34.5377 56.0646 34.493 57.4952C34.3767 60.9169 34.9745 64.3256 36.2492 67.5089C37.5239 70.6923 39.4482 73.5821 41.9022 75.9983Z" fill="#768EC8"/>
</svg>
