<svg width="20" height="23" viewBox="0 0 20 23" fill="none" xmlns="http://www.w3.org/2000/svg">
<path d="M9.76323 22.8398L7.7517 19.0654L11.7748 19.0654L9.76323 22.8398Z" fill="#D9D9D9"/>
<path d="M9.76318 21.8721L11.1181 19.1623L9.76318 18.9688V21.8721Z" fill="#768EC8"/>
<circle cx="9.76293" cy="9.67797" r="9.67797" fill="#768EC8"/>
<circle cx="9.76301" cy="9.67757" r="9.29085" fill="#D9D9D9"/>
<path d="M8.09814 17.2254L12.8823 12.4876C13.6597 11.7159 14.0961 10.6712 14.0961 9.58219C14.0961 8.49319 13.6597 7.44853 12.8823 6.67681L15.3889 4.19922C16.5961 5.3861 17.3789 6.92957 17.6188 8.59573C17.8587 10.2619 17.5426 11.9599 16.7184 13.4326C15.8941 14.9052 14.6067 16.0721 13.0512 16.7565C11.4957 17.441 9.75683 17.6056 8.09814 17.2254Z" fill="#3D52A0"/>
<path d="M11.4562 11.2701C12.3492 10.3945 12.3549 8.96922 11.4691 8.08659C10.5833 7.20396 9.14122 7.19824 8.24824 8.07381C7.35525 8.94939 7.34947 10.3747 8.23531 11.2573C9.12116 12.14 10.5632 12.1457 11.4562 11.2701Z" fill="#768EC8"/>
<path d="M12.6996 6.67916C12.2985 6.28189 11.8191 5.97028 11.2912 5.76368C10.7632 5.55708 10.198 5.45988 9.63048 5.47812C9.38996 5.48757 9.15003 5.44819 8.92551 5.36241C8.70099 5.27663 8.49664 5.14628 8.32508 4.9794L8.2811 4.93593C8.03859 4.69664 7.87143 4.39302 7.79985 4.0618C7.72828 3.73058 7.75534 3.38595 7.87778 3.06962C8.00021 2.75328 8.21277 2.47879 8.48974 2.27936C8.7667 2.07993 9.0962 1.96411 9.43837 1.9459C10.6482 1.88399 11.8561 2.1004 12.967 2.5781C14.0778 3.0558 15.0614 3.78177 15.8403 4.69888C16.6192 5.61599 17.1722 6.69923 17.4558 7.86339C17.7393 9.02754 17.7457 10.2408 17.4745 11.4079L12.6996 6.67916Z" fill="#768EC8"/>
<path d="M8.09814 17.2252L9.85257 15.4911L10.4034 14.9375L11.6047 17.2252C10.4457 17.4373 9.25713 17.4373 8.09814 17.2252Z" fill="#2556A5"/>
<path d="M6.82257 12.4876L11.6044 17.2255C10.4229 17.4939 9.19451 17.4874 8.01596 17.2067C6.83741 16.9259 5.74092 16.3785 4.81285 15.6076C3.88479 14.8367 3.1505 13.8633 2.66785 12.7641C2.18519 11.6649 1.96734 10.47 2.03147 9.27341C2.04989 8.93521 2.16708 8.60953 2.36885 8.33577C2.57062 8.06202 2.84832 7.85193 3.16837 7.73091C3.48842 7.6099 3.83709 7.58314 4.17219 7.65389C4.5073 7.72464 4.81448 7.88986 5.05657 8.12956L5.10055 8.17303C5.26737 8.34072 5.39809 8.54009 5.48481 8.7591C5.57153 8.97811 5.61246 9.21221 5.60512 9.44728C5.58601 10.0095 5.68424 10.5696 5.8937 11.0927C6.10315 11.6158 6.41934 12.0906 6.82257 12.4876Z" fill="#768EC8"/>
</svg>
