<svg width="30" height="35" viewBox="0 0 30 35" fill="none" xmlns="http://www.w3.org/2000/svg">
<path d="M14.9999 34.8398L11.9315 29.0824L18.0683 29.0824L14.9999 34.8398Z" fill="#D9D9D9"/>
<path d="M15 33.3634L17.0668 29.2298L15 28.9346V33.3634Z" fill="#768EC8"/>
<circle cx="15" cy="14.7627" r="14.7627" fill="#768EC8"/>
<circle cx="14.9998" cy="14.763" r="14.1722" fill="#D9D9D9"/>
<path d="M12.4604 26.2754L19.7582 19.0483C20.944 17.8711 21.6097 16.2776 21.6097 14.6164C21.6097 12.9553 20.944 11.3618 19.7582 10.1846L23.5818 6.40527C25.4232 8.21574 26.6173 10.5701 26.9832 13.1117C27.3492 15.6532 26.867 18.2434 25.6097 20.4898C24.3524 22.7361 22.3886 24.5161 20.0158 25.5601C17.643 26.6042 14.9906 26.8553 12.4604 26.2754Z" fill="#3D52A0"/>
<path d="M17.5824 17.1907C18.9446 15.8551 18.9534 13.6809 17.6021 12.3346C16.2509 10.9882 14.0512 10.9795 12.6891 12.3151C11.3269 13.6507 11.3181 15.8248 12.6693 17.1712C14.0206 18.5176 16.2203 18.5263 17.5824 17.1907Z" fill="#768EC8"/>
<path d="M19.479 10.188C18.8672 9.58203 18.1359 9.10671 17.3306 8.79156C16.5253 8.47641 15.6631 8.32815 14.7974 8.35597C14.4305 8.37038 14.0645 8.31031 13.722 8.17946C13.3796 8.04862 13.0678 7.84978 12.8061 7.59522L12.7391 7.52892C12.3691 7.16391 12.1142 6.70077 12.005 6.19552C11.8958 5.69028 11.9371 5.16459 12.1238 4.68205C12.3106 4.19952 12.6348 3.78081 13.0573 3.4766C13.4798 3.17239 13.9824 2.99571 14.5044 2.96794C16.3498 2.87351 18.1923 3.20362 19.8868 3.9323C21.5814 4.66098 23.0817 5.76836 24.2699 7.16732C25.458 8.56627 26.3015 10.2186 26.7341 11.9944C27.1666 13.7702 27.1763 15.621 26.7625 17.4012L19.479 10.188Z" fill="#768EC8"/>
<path d="M12.4604 26.2758L15.1366 23.6306L15.9769 22.7861L17.8093 26.2758C16.0414 26.5994 14.2284 26.5994 12.4604 26.2758Z" fill="#2556A5"/>
<path d="M10.5145 19.0486L17.8087 26.2756C16.0064 26.685 14.1326 26.6752 12.3349 26.2469C10.5371 25.8187 8.86454 24.9837 7.44888 23.8077C6.03321 22.6317 4.91314 21.1469 4.1769 19.4702C3.44066 17.7936 3.10836 15.9708 3.20618 14.1456C3.23428 13.6297 3.41303 13.1329 3.72081 12.7153C4.02859 12.2977 4.4522 11.9773 4.9404 11.7927C5.42859 11.6081 5.96045 11.5673 6.47162 11.6752C6.98279 11.7831 7.45136 12.0351 7.82065 12.4008L7.88773 12.4671C8.1422 12.7229 8.34159 13.027 8.47388 13.3611C8.60616 13.6951 8.66859 14.0522 8.6574 14.4108C8.62825 15.2684 8.77809 16.1228 9.09759 16.9207C9.41709 17.7186 9.89941 18.4429 10.5145 19.0486Z" fill="#768EC8"/>
</svg>
