<svg width="205" height="83" viewBox="0 0 205 83" fill="none" xmlns="http://www.w3.org/2000/svg">
<g filter="url(#filter0_dddd_178_417)">
<path d="M42.2529 44.9128L54.6113 32.6741C56.6194 30.6806 57.7468 27.982 57.7468 25.1689C57.7468 22.3558 56.6194 19.6573 54.6113 17.6637L61.0864 11.2637C64.2047 14.3296 66.2269 18.3167 66.8466 22.6207C67.4663 26.9247 66.6497 31.3111 64.5206 35.1151C62.3915 38.9192 59.0658 41.9336 55.0476 43.7016C51.0294 45.4696 46.5376 45.8948 42.2529 44.9128Z" fill="#3D52A0"/>
<path d="M50.9278 29.5285C53.2345 27.2667 53.2495 23.5849 50.9612 21.3049C48.6729 19.0249 44.9478 19.0101 42.6411 21.2719C40.3343 23.5337 40.3194 27.2155 42.6077 29.4955C44.896 31.7755 48.621 31.7903 50.9278 29.5285Z" fill="#768EC8"/>
<path d="M54.1387 17.6697C53.1027 16.6434 51.8644 15.8385 50.5006 15.3048C49.1369 14.7711 47.6767 14.52 46.2107 14.5671C45.5894 14.5915 44.9697 14.4898 44.3897 14.2682C43.8097 14.0467 43.2818 13.7099 42.8386 13.2789L42.725 13.1666C42.0986 12.5484 41.6668 11.7641 41.4819 10.9085C41.297 10.0529 41.3669 9.16269 41.6832 8.34553C41.9995 7.52838 42.5485 6.81932 43.264 6.30416C43.9794 5.78899 44.8306 5.48979 45.7145 5.44275C48.8397 5.28284 51.9599 5.84186 54.8295 7.07586C57.6991 8.30985 60.2399 10.1851 62.2519 12.5542C64.264 14.9233 65.6925 17.7215 66.4249 20.7287C67.1574 23.736 67.1739 26.8702 66.4732 29.8848L54.1387 17.6697Z" fill="#768EC8"/>
<path d="M42.2529 44.913L46.7849 40.4335L48.2079 39.0034L51.3109 44.913C48.3171 45.461 45.2468 45.461 42.2529 44.913Z" fill="#2556A5"/>
<path d="M38.9583 32.6742L51.3107 44.913C48.2587 45.6063 45.0855 45.5896 42.0411 44.8644C38.9967 44.1391 36.1642 42.7251 33.7669 40.7336C31.3695 38.7422 29.4727 36.2277 28.2259 33.3884C26.9791 30.549 26.4164 27.4622 26.582 24.3713C26.6296 23.4976 26.9323 22.6563 27.4535 21.9492C27.9747 21.242 28.6921 20.6993 29.5189 20.3867C30.3456 20.0741 31.2463 20.005 32.1119 20.1878C32.9776 20.3705 33.7711 20.7973 34.3964 21.4165L34.51 21.5288C34.941 21.962 35.2786 22.477 35.5026 23.0427C35.7267 23.6084 35.8324 24.2132 35.8134 24.8204C35.7641 26.2728 36.0178 27.7196 36.5589 29.0708C37.0999 30.422 37.9167 31.6486 38.9583 32.6742Z" fill="#768EC8"/>
</g>
<path d="M85.952 28.52L85.776 24.968L90.592 19.8H94.08L89.28 25L87.52 26.84L85.952 28.52ZM83.12 31V19.8H86.256V31H83.12ZM90.64 31L86.992 26.376L89.056 24.168L94.32 31H90.64ZM95.0073 31V22.328H98.0473V31H95.0073ZM96.5273 21.368C95.9726 21.368 95.5246 21.2133 95.1833 20.904C94.8419 20.5947 94.6713 20.2107 94.6713 19.752C94.6713 19.2933 94.8419 18.9093 95.1833 18.6C95.5246 18.2907 95.9726 18.136 96.5273 18.136C97.0819 18.136 97.5299 18.2853 97.8713 18.584C98.2126 18.872 98.3833 19.2453 98.3833 19.704C98.3833 20.184 98.2126 20.584 97.8713 20.904C97.5406 21.2133 97.0926 21.368 96.5273 21.368ZM100.023 31V22.328H102.919V24.856L102.487 24.136C102.743 23.4853 103.159 23 103.735 22.68C104.311 22.3493 105.01 22.184 105.831 22.184V24.92C105.692 24.8987 105.57 24.888 105.463 24.888C105.367 24.8773 105.26 24.872 105.143 24.872C104.524 24.872 104.023 25.0427 103.639 25.384C103.255 25.7147 103.063 26.2587 103.063 27.016V31H100.023ZM110.765 31.144C110.061 31.144 109.426 31.0053 108.861 30.728C108.306 30.4507 107.869 30.0187 107.549 29.432C107.239 28.8347 107.085 28.0827 107.085 27.176V22.328H110.125V26.68C110.125 27.352 110.247 27.832 110.493 28.12C110.749 28.408 111.106 28.552 111.565 28.552C111.863 28.552 112.135 28.4827 112.381 28.344C112.626 28.2053 112.823 27.9867 112.973 27.688C113.122 27.3787 113.197 26.984 113.197 26.504V22.328H116.237V31H113.341V28.552L113.901 29.24C113.602 29.88 113.17 30.36 112.605 30.68C112.039 30.9893 111.426 31.144 110.765 31.144ZM123.843 22.184C124.515 22.184 125.123 22.3227 125.667 22.6C126.211 22.8667 126.637 23.2827 126.947 23.848C127.267 24.4133 127.427 25.144 127.427 26.04V31H124.387V26.536C124.387 25.9173 124.259 25.4693 124.003 25.192C123.757 24.904 123.411 24.76 122.963 24.76C122.643 24.76 122.349 24.8347 122.083 24.984C121.816 25.1227 121.608 25.3413 121.459 25.64C121.309 25.9387 121.235 26.328 121.235 26.808V31H118.195V22.328H121.091V24.792L120.531 24.072C120.861 23.4427 121.315 22.9733 121.891 22.664C122.467 22.344 123.117 22.184 123.843 22.184ZM134.631 31V29.384L134.423 28.984V26.008C134.423 25.528 134.274 25.16 133.975 24.904C133.687 24.6373 133.223 24.504 132.583 24.504C132.167 24.504 131.746 24.5733 131.319 24.712C130.893 24.84 130.53 25.0213 130.231 25.256L129.207 23.192C129.698 22.872 130.285 22.6267 130.967 22.456C131.661 22.2747 132.349 22.184 133.031 22.184C134.439 22.184 135.527 22.5093 136.295 23.16C137.074 23.8 137.463 24.808 137.463 26.184V31H134.631ZM132.071 31.144C131.378 31.144 130.791 31.0267 130.311 30.792C129.831 30.5573 129.463 30.2373 129.207 29.832C128.962 29.4267 128.839 28.9733 128.839 28.472C128.839 27.9387 128.973 27.48 129.239 27.096C129.517 26.7013 129.938 26.4027 130.503 26.2C131.069 25.9867 131.799 25.88 132.695 25.88H134.743V27.464H133.111C132.621 27.464 132.274 27.544 132.071 27.704C131.879 27.864 131.783 28.0773 131.783 28.344C131.783 28.6107 131.885 28.824 132.087 28.984C132.29 29.144 132.567 29.224 132.919 29.224C133.25 29.224 133.549 29.144 133.815 28.984C134.093 28.8133 134.295 28.5573 134.423 28.216L134.839 29.336C134.679 29.9333 134.365 30.3867 133.895 30.696C133.437 30.9947 132.829 31.144 132.071 31.144Z" fill="#3D52A0"/>
<path d="M141.446 24.952H147.51L147.366 25.672H141.302L141.446 24.952ZM140.486 30.264H147.398L147.238 31H139.526L141.766 19.8H149.254L149.094 20.536H142.438L140.486 30.264ZM148.364 31L152.764 26.488L152.684 26.856L150.236 22.648H151.084L153.244 26.376L152.892 26.36L156.476 22.648H157.42L153.244 26.952L153.308 26.504L155.932 31H155.068L152.796 27.048L153.132 27.064L149.324 31H148.364ZM162.501 31.064C161.775 31.064 161.151 30.936 160.629 30.68C160.117 30.4133 159.727 30.0347 159.461 29.544C159.194 29.0427 159.055 28.44 159.045 27.736C159.045 26.7333 159.231 25.848 159.605 25.08C159.989 24.3013 160.522 23.6933 161.205 23.256C161.898 22.808 162.703 22.584 163.621 22.584C164.346 22.584 164.975 22.7227 165.509 23C166.053 23.2773 166.474 23.6773 166.773 24.2C167.082 24.7227 167.237 25.3413 167.237 26.056C167.237 26.7813 167.119 27.448 166.885 28.056C166.65 28.664 166.319 29.192 165.893 29.64C165.477 30.088 164.981 30.44 164.405 30.696C163.829 30.9413 163.194 31.064 162.501 31.064ZM157.365 34.104L159.653 22.648H160.437L159.909 25.256L159.461 26.712L159.349 28.248L158.165 34.104H157.365ZM162.517 30.344C163.274 30.344 163.946 30.1627 164.533 29.8C165.119 29.4373 165.578 28.936 165.909 28.296C166.25 27.6453 166.421 26.9147 166.421 26.104C166.421 25.208 166.159 24.52 165.637 24.04C165.125 23.5493 164.399 23.304 163.461 23.304C162.714 23.304 162.042 23.4853 161.445 23.848C160.858 24.2107 160.394 24.712 160.053 25.352C159.711 25.992 159.541 26.7227 159.541 27.544C159.541 28.4293 159.802 29.1173 160.325 29.608C160.847 30.0987 161.578 30.344 162.517 30.344ZM168.786 31L171.154 19.128H171.954L169.586 31H168.786ZM176.525 31.064C175.779 31.064 175.128 30.9253 174.573 30.648C174.019 30.36 173.587 29.9547 173.277 29.432C172.979 28.9093 172.829 28.296 172.829 27.592C172.829 26.632 173.032 25.7787 173.437 25.032C173.853 24.2747 174.419 23.6773 175.133 23.24C175.859 22.8027 176.685 22.584 177.613 22.584C178.371 22.584 179.021 22.728 179.565 23.016C180.12 23.2933 180.547 23.6933 180.845 24.216C181.155 24.728 181.309 25.3413 181.309 26.056C181.309 27.016 181.101 27.8747 180.685 28.632C180.28 29.3787 179.715 29.9707 178.989 30.408C178.275 30.8453 177.453 31.064 176.525 31.064ZM176.589 30.344C177.347 30.344 178.019 30.1627 178.605 29.8C179.192 29.4373 179.656 28.936 179.997 28.296C180.339 27.6453 180.509 26.9147 180.509 26.104C180.509 25.208 180.248 24.52 179.725 24.04C179.213 23.5493 178.488 23.304 177.549 23.304C176.803 23.304 176.131 23.4907 175.533 23.864C174.947 24.2267 174.483 24.728 174.141 25.368C173.8 26.008 173.629 26.7333 173.629 27.544C173.629 28.4293 173.885 29.1173 174.397 29.608C174.92 30.0987 175.651 30.344 176.589 30.344ZM182.879 31L184.543 22.648H185.327L184.815 25.16L184.719 24.872C185.082 24.1147 185.573 23.544 186.191 23.16C186.81 22.776 187.589 22.584 188.527 22.584L188.383 23.368C188.341 23.368 188.298 23.368 188.255 23.368C188.213 23.3573 188.17 23.352 188.127 23.352C187.189 23.352 186.41 23.6347 185.791 24.2C185.183 24.7547 184.767 25.592 184.543 26.712L183.679 31H182.879ZM192.637 31.064C191.859 31.064 191.181 30.9253 190.605 30.648C190.029 30.36 189.587 29.9547 189.277 29.432C188.979 28.9093 188.829 28.2853 188.829 27.56C188.829 26.6107 189.027 25.7627 189.421 25.016C189.827 24.2693 190.371 23.6773 191.053 23.24C191.747 22.8027 192.525 22.584 193.389 22.584C194.125 22.584 194.755 22.7227 195.277 23C195.8 23.2773 196.205 23.6773 196.493 24.2C196.792 24.712 196.941 25.336 196.941 26.072C196.941 26.232 196.931 26.392 196.909 26.552C196.888 26.712 196.867 26.8613 196.845 27H189.437L189.549 26.376H196.461L196.141 26.648C196.259 25.912 196.211 25.2987 195.997 24.808C195.784 24.3067 195.448 23.928 194.989 23.672C194.541 23.4053 194.003 23.272 193.373 23.272C192.648 23.272 191.997 23.4587 191.421 23.832C190.856 24.1947 190.413 24.696 190.093 25.336C189.773 25.9653 189.613 26.696 189.613 27.528C189.613 28.4347 189.875 29.1333 190.397 29.624C190.92 30.104 191.688 30.344 192.701 30.344C193.299 30.344 193.843 30.248 194.333 30.056C194.835 29.8533 195.245 29.576 195.565 29.224L195.933 29.784C195.571 30.1787 195.096 30.4933 194.509 30.728C193.933 30.952 193.309 31.064 192.637 31.064ZM198.52 31L200.184 22.648H200.968L200.456 25.16L200.36 24.872C200.723 24.1147 201.213 23.544 201.832 23.16C202.451 22.776 203.229 22.584 204.168 22.584L204.024 23.368C203.981 23.368 203.939 23.368 203.896 23.368C203.853 23.3573 203.811 23.352 203.768 23.352C202.829 23.352 202.051 23.6347 201.432 24.2C200.824 24.7547 200.408 25.592 200.184 26.712L199.32 31H198.52Z" fill="#1E1E1E"/>
<defs>
<filter id="filter0_dddd_178_417" x="-7" y="-1" width="118" height="119" filterUnits="userSpaceOnUse" color-interpolation-filters="sRGB">
<feFlood flood-opacity="0" result="BackgroundImageFix"/>
<feColorMatrix in="SourceAlpha" type="matrix" values="0 0 0 0 0 0 0 0 0 0 0 0 0 0 0 0 0 0 127 0" result="hardAlpha"/>
<feOffset dy="2"/>
<feGaussianBlur stdDeviation="1.5"/>
<feColorMatrix type="matrix" values="0 0 0 0 0 0 0 0 0 0 0 0 0 0 0 0 0 0 0.1 0"/>
<feBlend mode="normal" in2="BackgroundImageFix" result="effect1_dropShadow_178_417"/>
<feColorMatrix in="SourceAlpha" type="matrix" values="0 0 0 0 0 0 0 0 0 0 0 0 0 0 0 0 0 0 127 0" result="hardAlpha"/>
<feOffset dx="1" dy="6"/>
<feGaussianBlur stdDeviation="3"/>
<feColorMatrix type="matrix" values="0 0 0 0 0 0 0 0 0 0 0 0 0 0 0 0 0 0 0.09 0"/>
<feBlend mode="normal" in2="effect1_dropShadow_178_417" result="effect2_dropShadow_178_417"/>
<feColorMatrix in="SourceAlpha" type="matrix" values="0 0 0 0 0 0 0 0 0 0 0 0 0 0 0 0 0 0 127 0" result="hardAlpha"/>
<feOffset dx="2" dy="14"/>
<feGaussianBlur stdDeviation="4"/>
<feColorMatrix type="matrix" values="0 0 0 0 0 0 0 0 0 0 0 0 0 0 0 0 0 0 0.05 0"/>
<feBlend mode="normal" in2="effect2_dropShadow_178_417" result="effect3_dropShadow_178_417"/>
<feColorMatrix in="SourceAlpha" type="matrix" values="0 0 0 0 0 0 0 0 0 0 0 0 0 0 0 0 0 0 127 0" result="hardAlpha"/>
<feOffset dx="3" dy="25"/>
<feGaussianBlur stdDeviation="5"/>
<feColorMatrix type="matrix" values="0 0 0 0 0 0 0 0 0 0 0 0 0 0 0 0 0 0 0.01 0"/>
<feBlend mode="normal" in2="effect3_dropShadow_178_417" result="effect4_dropShadow_178_417"/>
<feBlend mode="normal" in="SourceGraphic" in2="effect4_dropShadow_178_417" result="shape"/>
</filter>
</defs>
</svg>
