<svg width="38" height="45" viewBox="0 0 38 45" fill="none" xmlns="http://www.w3.org/2000/svg">
<path d="M19.0001 44.9199L15.051 37.5099L22.9491 37.5099L19.0001 44.9199Z" fill="#D9D9D9"/>
<path d="M19 43.0203L21.66 37.7003L19 37.3203V43.0203Z" fill="#768EC8"/>
<circle cx="19" cy="19.0801" r="19" fill="#768EC8"/>
<circle cx="18.9998" cy="19.0798" r="18.24" fill="#D9D9D9"/>
<path d="M15.7314 33.8976L25.1238 24.5961C26.6499 23.0811 27.5068 21.0301 27.5068 18.8922C27.5068 16.7542 26.6499 14.7033 25.1238 13.1883L30.0449 8.32422C32.4148 10.6543 33.9517 13.6845 34.4227 16.9555C34.8936 20.2266 34.273 23.5602 32.6549 26.4513C31.0367 29.3424 28.5092 31.6334 25.4554 32.977C22.4016 34.3207 18.9878 34.6439 15.7314 33.8976Z" fill="#3D52A0"/>
<path d="M22.3238 22.2056C24.0769 20.4866 24.0882 17.6884 22.3491 15.9556C20.61 14.2228 17.779 14.2116 16.0259 15.9305C14.2728 17.6495 14.2614 20.4477 16.0005 22.1805C17.7396 23.9133 20.5706 23.9245 22.3238 22.2056Z" fill="#768EC8"/>
<path d="M24.7648 13.1927C23.9775 12.4127 23.0363 11.801 21.9999 11.3954C20.9634 10.9898 19.8537 10.7989 18.7396 10.8347C18.2674 10.8533 17.7963 10.776 17.3555 10.6076C16.9148 10.4392 16.5136 10.1833 16.1768 9.85564L16.0904 9.77031C15.6143 9.30053 15.2862 8.70445 15.1456 8.05419C15.0051 7.40393 15.0582 6.72735 15.2986 6.10631C15.539 5.48528 15.9563 4.9464 16.5 4.55487C17.0438 4.16334 17.6906 3.93595 18.3624 3.9002C20.7376 3.77867 23.1089 4.20353 25.2898 5.14136C27.4707 6.0792 29.4017 7.50442 30.9309 9.30492C32.46 11.1054 33.5457 13.2321 34.1024 15.5175C34.659 17.803 34.6716 20.185 34.139 22.4761L24.7648 13.1927Z" fill="#768EC8"/>
<path d="M15.7314 33.8975L19.1758 30.4931L20.2572 29.4062L22.6155 33.8975C20.3402 34.314 18.0068 34.314 15.7314 33.8975Z" fill="#2556A5"/>
<path d="M13.2273 24.5959L22.6151 33.8973C20.2956 34.4242 17.884 34.4116 15.5702 33.8604C13.2565 33.3092 11.1038 32.2345 9.2818 30.721C7.4598 29.2075 6.01824 27.2966 5.07067 25.1386C4.12311 22.9807 3.69543 20.6348 3.82133 18.2856C3.85749 17.6217 4.08755 16.9823 4.48367 16.4449C4.87979 15.9074 5.42499 15.495 6.05331 15.2574C6.68164 15.0198 7.36615 14.9673 8.02404 15.1062C8.68193 15.2451 9.285 15.5694 9.76028 16.04L9.84662 16.1253C10.1741 16.4546 10.4307 16.846 10.601 17.2759C10.7712 17.7059 10.8516 18.1655 10.8372 18.627C10.7997 19.7308 10.9925 20.8304 11.4037 21.8573C11.8149 22.8842 12.4357 23.8164 13.2273 24.5959Z" fill="#768EC8"/>
</svg>
