<svg width="50" height="59" viewBox="0 0 50 59" fill="none" xmlns="http://www.w3.org/2000/svg">
<path d="M25 59L19.8038 49.25L30.1962 49.25L25 59Z" fill="#D9D9D9"/>
<path d="M25 56.5L28.5 49.5L25 49V56.5Z" fill="#768EC8"/>
<circle cx="25" cy="25" r="25" fill="#768EC8"/>
<circle cx="25" cy="25" r="24" fill="#D9D9D9"/>
<path d="M20.6992 44.4968L33.0576 32.2581C35.0657 30.2645 36.193 27.566 36.193 24.7529C36.193 21.9398 35.0657 19.2412 33.0576 17.2477L39.5327 10.8477C42.651 13.9136 44.6732 17.9007 45.2929 22.2047C45.9126 26.5087 45.096 30.895 42.9669 34.6991C40.8377 38.5032 37.5121 41.5176 33.4939 43.2856C29.4757 45.0536 24.9839 45.4788 20.6992 44.4968Z" fill="#3D52A0"/>
<path d="M29.3736 29.1125C31.6803 26.8507 31.6953 23.1689 29.407 20.8889C27.1187 18.6089 23.3936 18.5941 21.0869 20.8559C18.7801 23.1176 18.7652 26.7995 21.0535 29.0795C23.3418 31.3595 27.0668 31.3743 29.3736 29.1125Z" fill="#768EC8"/>
<path d="M32.585 17.2537C31.549 16.2274 30.3107 15.4225 28.9469 14.8888C27.5832 14.3551 26.123 14.104 24.657 14.1511C24.0357 14.1755 23.4159 14.0738 22.836 13.8522C22.256 13.6306 21.7281 13.2939 21.2849 12.8628L21.1713 12.7506C20.5449 12.1324 20.1131 11.3481 19.9282 10.4925C19.7433 9.63691 19.8132 8.74667 20.1295 7.92951C20.4457 7.11236 20.9948 6.40331 21.7103 5.88814C22.4257 5.37297 23.2769 5.07377 24.1608 5.02674C27.286 4.86682 30.4062 5.42585 33.2758 6.65984C36.1454 7.89384 38.6862 9.76913 40.6982 12.1382C42.7103 14.5073 44.1388 17.3055 44.8712 20.3127C45.6037 23.3199 45.6202 26.4541 44.9195 29.4687L32.585 17.2537Z" fill="#768EC8"/>
<path d="M20.6992 44.4975L25.2312 40.018L26.6542 38.5879L29.7572 44.4975C26.7634 45.0455 23.6931 45.0455 20.6992 44.4975Z" fill="#2556A5"/>
<path d="M17.4046 32.2582L29.757 44.4969C26.705 45.1902 23.5318 45.1736 20.4874 44.4484C17.443 43.7231 14.6105 42.3091 12.2131 40.3176C9.81578 38.3262 7.91899 35.8117 6.6722 32.9723C5.4254 30.133 4.86267 27.0462 5.02832 23.9553C5.07591 23.0816 5.37862 22.2403 5.89983 21.5332C6.42103 20.826 7.13841 20.2833 7.96514 19.9707C8.79188 19.6581 9.69256 19.589 10.5582 19.7717C11.4238 19.9545 12.2174 20.3813 12.8427 21.0005L12.9563 21.1128C13.3873 21.546 13.7249 22.061 13.9489 22.6267C14.173 23.1924 14.2787 23.7972 14.2597 24.4044C14.2104 25.8568 14.4641 27.3036 15.0052 28.6548C15.5462 30.006 16.363 31.2326 17.4046 32.2582Z" fill="#768EC8"/>
</svg>
