<svg width="86" height="101" viewBox="0 0 86 101" fill="none" xmlns="http://www.w3.org/2000/svg">
<path d="M42.9998 101L34.1047 84.3093L51.8949 84.3093L42.9998 101Z" fill="#D9D9D9"/>
<path d="M43 96.7208L48.9915 84.7378L43 83.8818V96.7208Z" fill="#768EC8"/>
<circle cx="43.0002" cy="42.7966" r="42.7966" fill="#768EC8"/>
<circle cx="43.0003" cy="42.7967" r="41.0847" fill="#D9D9D9"/>
<path d="M35.6377 76.1731L56.7935 55.222C60.2311 51.8094 62.161 47.1898 62.161 42.3742C62.161 37.5586 60.2311 32.939 56.7935 29.5264L67.8781 18.5703C73.2162 23.8188 76.678 30.6441 77.7388 38.012C78.7996 45.3799 77.4017 52.8887 73.7569 59.4008C70.1121 65.9128 64.4191 71.0731 57.5404 74.0997C50.6618 77.1262 42.9725 77.8541 35.6377 76.1731Z" fill="#3D52A0"/>
<path d="M50.487 49.8365C54.4359 45.9647 54.4615 39.6619 50.5442 35.7588C46.6269 31.8557 40.2502 31.8304 36.3014 35.7023C32.3525 39.5741 32.3269 45.8769 36.2442 49.78C40.1615 53.6831 46.5382 53.7084 50.487 49.8365Z" fill="#768EC8"/>
<path d="M55.9848 29.5362C54.2112 27.7794 52.0914 26.4014 49.7569 25.4878C47.4223 24.5742 44.9227 24.1444 42.4131 24.2251C41.3495 24.2668 40.2885 24.0927 39.2957 23.7134C38.3029 23.3341 37.3992 22.7576 36.6405 22.0197L36.4461 21.8275C35.3737 20.7693 34.6345 19.4267 34.318 17.962C34.0015 16.4973 34.1211 14.9734 34.6626 13.5745C35.204 12.1756 36.1439 10.9618 37.3687 10.0799C38.5934 9.19805 40.0505 8.68586 41.5636 8.60534C46.9136 8.33159 52.2549 9.28857 57.1673 11.401C62.0796 13.5134 66.4291 16.7237 69.8735 20.7792C73.3179 24.8347 75.7632 29.6249 77.0171 34.7729C78.271 39.9208 78.2993 45.2862 77.0997 50.4468L55.9848 29.5362Z" fill="#768EC8"/>
<path d="M35.6377 76.173L43.3959 68.5048L45.8318 66.0566L51.1438 76.173C46.0187 77.1111 40.7628 77.1111 35.6377 76.173Z" fill="#2556A5"/>
<path d="M29.9977 55.2219L51.1433 76.1729C45.9187 77.3598 40.4866 77.3313 35.275 76.0898C30.0634 74.8483 25.2146 72.4276 21.1106 69.0185C17.0067 65.6094 13.7596 61.305 11.6253 56.4444C9.49093 51.5837 8.5276 46.2996 8.81118 41.0084C8.89264 39.5128 9.41084 38.0726 10.3031 36.8621C11.1953 35.6515 12.4234 34.7225 13.8386 34.1873C15.2539 33.6522 16.7957 33.5339 18.2776 33.8467C19.7594 34.1596 21.1178 34.8902 22.1884 35.9502L22.3829 36.1424C23.1205 36.8839 23.6986 37.7656 24.0821 38.734C24.4655 39.7025 24.6465 40.7377 24.6141 41.7772C24.5296 44.2635 24.964 46.7403 25.8902 49.0534C26.8164 51.3664 28.2146 53.4662 29.9977 55.2219Z" fill="#768EC8"/>
</svg>
