<svg width="17" height="19" viewBox="0 0 17 19" fill="none" xmlns="http://www.w3.org/2000/svg">
<path d="M8.67733 18.8398L7.01808 15.7265L10.3366 15.7265L8.67733 18.8398Z" fill="#D9D9D9"/>
<path d="M8.67773 18.0414L9.79536 15.8061L8.67773 15.6465V18.0414Z" fill="#768EC8"/>
<circle cx="8.67788" cy="7.98305" r="7.98305" fill="#768EC8"/>
<circle cx="8.67789" cy="7.98306" r="7.66373" fill="#D9D9D9"/>
<path d="M7.30518 14.2088L11.2515 10.3007C11.8927 9.66411 12.2527 8.8024 12.2527 7.90411C12.2527 7.00583 11.8927 6.14412 11.2515 5.50755L13.3191 3.46387C14.3149 4.44289 14.9606 5.71605 15.1585 7.09041C15.3564 8.46478 15.0956 9.86544 14.4157 11.0802C13.7358 12.2949 12.6739 13.2575 11.3908 13.822C10.1077 14.3866 8.67337 14.5224 7.30518 14.2088Z" fill="#3D52A0"/>
<path d="M10.0746 9.29658C10.8112 8.57434 10.8159 7.39865 10.0852 6.6706C9.35453 5.94254 8.16505 5.93782 7.42845 6.66005C6.69185 7.38229 6.68708 8.55798 7.41779 9.28604C8.14849 10.0141 9.33797 10.0188 10.0746 9.29658Z" fill="#768EC8"/>
<path d="M11.0998 5.50954C10.7689 5.18184 10.3735 4.92481 9.93803 4.75439C9.50255 4.58397 9.03629 4.50379 8.56816 4.51884C8.36977 4.52663 8.17186 4.49415 7.98666 4.42339C7.80146 4.35264 7.6329 4.24511 7.49138 4.10746L7.45511 4.0716C7.25507 3.87422 7.11718 3.62377 7.05814 3.35056C6.9991 3.07735 7.02142 2.79307 7.12242 2.53214C7.22341 2.2712 7.39874 2.04479 7.6272 1.88028C7.85566 1.71578 8.12746 1.62024 8.4097 1.60522C9.40766 1.55415 10.404 1.73266 11.3203 2.1267C12.2367 2.52075 13.048 3.11957 13.6905 3.87607C14.333 4.63256 14.7891 5.52609 15.023 6.48637C15.2569 7.44664 15.2622 8.44746 15.0384 9.41009L11.0998 5.50954Z" fill="#768EC8"/>
<path d="M7.30518 14.2093L8.75234 12.7789L9.20673 12.3223L10.1976 14.2093C9.24159 14.3843 8.26119 14.3843 7.30518 14.2093Z" fill="#2556A5"/>
<path d="M6.25209 10.3003L10.1965 14.2084C9.2219 14.4298 8.20862 14.4245 7.23648 14.1929C6.26433 13.9613 5.35986 13.5098 4.59433 12.8739C3.8288 12.238 3.22311 11.4351 2.82498 10.5284C2.42686 9.6217 2.24716 8.63604 2.30006 7.64903C2.31525 7.37006 2.41192 7.10141 2.57835 6.8756C2.74478 6.64979 2.97386 6.47649 3.23785 6.37667C3.50185 6.27685 3.78945 6.25478 4.06587 6.31314C4.34229 6.3715 4.59568 6.50778 4.79537 6.7055L4.83165 6.74135C4.96925 6.87968 5.07708 7.04414 5.14861 7.22479C5.22014 7.40544 5.2539 7.59854 5.24785 7.79245C5.23209 8.25622 5.31312 8.71823 5.48589 9.1497C5.65866 9.58117 5.91948 9.97285 6.25209 10.3003Z" fill="#768EC8"/>
</svg>
