<svg width="14" height="15" viewBox="0 0 14 15" fill="none" xmlns="http://www.w3.org/2000/svg">
<path d="M6.98255 14.8398L5.67558 12.3875L8.28951 12.3875L6.98255 14.8398Z" fill="#D9D9D9"/>
<path d="M6.98291 14.2116L7.86325 12.451L6.98291 12.3252V14.2116Z" fill="#768EC8"/>
<circle cx="6.98296" cy="6.28814" r="6.28814" fill="#768EC8"/>
<circle cx="6.9829" cy="6.28856" r="6.03661" fill="#D9D9D9"/>
<path d="M5.90186 11.1921L9.0103 8.11378C9.51538 7.61236 9.79895 6.9336 9.79895 6.22604C9.79895 5.51847 9.51538 4.83972 9.0103 4.3383L10.639 2.72852C11.4233 3.49968 11.9319 4.50253 12.0878 5.58509C12.2437 6.66766 12.0383 7.77094 11.5027 8.72776C10.9672 9.68458 10.1307 10.4428 9.12004 10.8875C8.10936 11.3322 6.97956 11.4391 5.90186 11.1921Z" fill="#3D52A0"/>
<path d="M8.08311 7.32305C8.66331 6.75415 8.66707 5.82808 8.09151 5.2546C7.51594 4.68112 6.579 4.6774 5.9988 5.24629C5.41859 5.81519 5.41483 6.74126 5.9904 7.31474C6.56596 7.88822 7.5029 7.89194 8.08311 7.32305Z" fill="#768EC8"/>
<path d="M8.89057 4.33992C8.62998 4.08179 8.31852 3.87933 7.9755 3.74509C7.63248 3.61086 7.26521 3.5477 6.89648 3.55955C6.7402 3.56569 6.58431 3.5401 6.43843 3.48437C6.29255 3.42864 6.15978 3.34395 6.04831 3.23552L6.01974 3.20727C5.86217 3.0518 5.75356 2.85453 5.70705 2.63932C5.66055 2.42411 5.67813 2.2002 5.75768 1.99466C5.83723 1.78912 5.97534 1.61078 6.15529 1.4812C6.33525 1.35162 6.54934 1.27637 6.77166 1.26454C7.55774 1.22431 8.34253 1.36492 9.06431 1.67531C9.78609 1.98569 10.4252 2.45737 10.9312 3.05325C11.4373 3.64913 11.7966 4.35296 11.9809 5.10935C12.1651 5.86574 12.1693 6.65408 11.993 7.41233L8.89057 4.33992Z" fill="#768EC8"/>
<path d="M5.90186 11.1925L7.04177 10.0658L7.39968 9.70605L8.18018 11.1925C7.42714 11.3303 6.65489 11.3303 5.90186 11.1925Z" fill="#2556A5"/>
<path d="M5.07223 8.11403L8.17917 11.1924C7.41151 11.3668 6.61336 11.3626 5.84762 11.1802C5.08187 10.9977 4.36944 10.6421 3.76644 10.1412C3.16344 9.64027 2.68635 9.00782 2.37275 8.29365C2.05915 7.57947 1.91761 6.80307 1.95927 6.02562C1.97124 5.80588 2.04738 5.59427 2.17848 5.4164C2.30957 5.23854 2.49001 5.10203 2.69796 5.0234C2.9059 4.94477 3.13245 4.92739 3.35018 4.97336C3.56791 5.01933 3.7675 5.12668 3.92479 5.28242L3.95337 5.31066C4.06176 5.41962 4.14669 5.54916 4.20303 5.69145C4.25938 5.83375 4.28597 5.98586 4.28121 6.13859C4.26879 6.5039 4.33261 6.86782 4.4687 7.20768C4.60479 7.54754 4.81024 7.85607 5.07223 8.11403Z" fill="#768EC8"/>
</svg>
