<svg width="348" height="347" viewBox="0 0 348 347" fill="none" xmlns="http://www.w3.org/2000/svg">
<path d="M135.24 342L241 236.27C258.228 219.041 267.906 195.675 267.906 171.31C267.906 146.946 258.228 123.579 241 106.35L296.4 50.9501C322.974 77.5121 340.181 112.001 345.423 149.206C350.665 186.411 343.655 224.312 325.455 257.182C307.254 290.052 278.85 316.106 244.534 331.407C210.219 346.709 171.855 350.427 135.24 342Z" fill="#3D52A0"/>
<path d="M209.446 209.047C229.187 189.463 229.315 157.584 209.731 137.842C190.148 118.1 158.268 117.973 138.526 137.556C118.785 157.14 118.657 189.02 138.241 208.761C157.824 228.503 189.704 228.631 209.446 209.047Z" fill="#768EC8"/>
<path d="M236.94 106.35C228.077 97.4652 217.483 90.4963 205.814 85.8759C194.146 81.2554 181.653 79.0818 169.11 79.4901C163.791 79.7046 158.485 78.8259 153.519 76.908C148.553 74.9902 144.034 72.0741 140.24 68.3401L139.24 67.3401C115.24 43.3401 131.07 2.22007 165.02 0.470065C191.765 -0.919861 218.468 3.91633 243.027 14.598C267.586 25.2797 289.33 41.5154 306.549 62.0273C323.768 82.5392 335.992 106.767 342.258 132.805C348.524 158.843 348.662 185.98 342.66 212.08L236.94 106.35Z" fill="#768EC8"/>
<path d="M135.23 342L186.2 291.03L212.76 342.03C181 346.58 165 346.89 135.23 342Z" fill="#2556A5"/>
<path d="M107 236.26L212.76 342C186.662 347.996 159.528 347.855 133.495 341.586C107.461 335.317 83.2365 323.093 62.7282 305.875C42.22 288.656 25.9873 266.913 15.3072 242.357C4.62718 217.801 -0.208772 191.102 1.17991 164.36C2.92991 130.41 44.0099 114.55 68.0499 138.58L69.0499 139.58C72.7839 143.374 75.7001 147.893 77.6179 152.859C79.5357 157.825 80.4145 163.131 80.1999 168.45C79.7867 180.986 81.9521 193.472 86.562 205.137C91.172 216.801 98.1284 227.394 107 236.26Z" fill="#768EC8"/>
</svg>
