<svg width="23" height="28" viewBox="0 0 23 28" fill="none" xmlns="http://www.w3.org/2000/svg">
<path d="M11.4988 27.1406L9.10856 22.6556L13.889 22.6556L11.4988 27.1406Z" fill="#D9D9D9"/>
<path d="M11.499 25.99L13.109 22.77L11.499 22.54V25.99Z" fill="#768EC8"/>
<circle cx="11.5" cy="11.5" r="11.5" fill="#768EC8"/>
<circle cx="11.5" cy="11.5" r="10.5" fill="#D9D9D9"/>
<path d="M5.96429 18.9999H16.933C17.3486 18.9999 17.7472 18.8373 18.041 18.548C18.3349 18.2586 18.5 17.8662 18.5 17.457V7.42843L14.5826 3.57129H7.53125C7.11567 3.57129 6.7171 3.73384 6.42324 4.02318C6.12938 4.31252 5.96429 4.70496 5.96429 5.11415V8.19986M13.6786 3.57129V6.78557C13.6786 7.21182 13.8479 7.6206 14.1493 7.922C14.4507 8.22339 14.8595 8.39272 15.2857 8.39272H18.5M5 13.2141L6.60714 15.1427L9.82143 11.2856" stroke="#3D52A0" stroke-width="1.25" stroke-linecap="round" stroke-linejoin="round"/>
</svg>
