<svg width="23" height="28" viewBox="0 0 23 28" fill="none" xmlns="http://www.w3.org/2000/svg">
<path d="M11.4988 27.1406L9.10856 22.6556L13.889 22.6556L11.4988 27.1406Z" fill="#D9D9D9"/>
<path d="M11.499 25.99L13.109 22.77L11.499 22.54V25.99Z" fill="#768EC8"/>
<circle cx="11.5" cy="11.5" r="11.5" fill="#768EC8"/>
<circle cx="11.5" cy="11.5" r="10.5" fill="#D9D9D9"/>
<path d="M13.7542 3V6.2C13.7542 6.62435 13.9209 7.03131 14.2176 7.33137C14.5142 7.63143 14.9166 7.8 15.3362 7.8H18.5M5.21186 11.72L4.5 11.4M5.21186 13.4794L4.5 13.7994M6.3795 18.6C6.66645 18.856 7.03541 18.9981 7.41803 19H16.9175C17.337 19 17.7394 18.8314 18.036 18.5314C18.3327 18.2313 18.4994 17.8243 18.4994 17.4V7L14.5446 3H7.42594C7.00638 3 6.60402 3.16857 6.30735 3.46863C6.01068 3.76869 5.84401 4.17565 5.84401 4.6V6.6M6.55619 10.3594L6.2398 9.63938M6.55619 14.8397L6.2398 15.5597M8.61299 9.63938L8.29661 10.3594M8.61299 15.5597L8.29661 14.8397M10.3525 11.4L9.64062 11.72M10.3525 13.7994L9.64062 13.4794M9.79913 12.6C9.79913 13.9255 8.73675 15 7.42624 15C6.11574 15 5.05336 13.9255 5.05336 12.6C5.05336 11.2745 6.11574 10.2 7.42624 10.2C8.73675 10.2 9.79913 11.2745 9.79913 12.6Z" stroke="#3D52A0" stroke-width="1.25" stroke-linecap="round" stroke-linejoin="round"/>
</svg>
