<svg width="32" height="32" viewBox="0 0 32 32" fill="none" xmlns="http://www.w3.org/2000/svg">
<path fill-rule="evenodd" clip-rule="evenodd" d="M7.5 2H12C13.3261 2 14.5979 2.52678 15.5355 3.46447C16.4732 4.40215 17 5.67392 17 7V9.5C17 10.8813 18.12 12 19.5 12H22C23.3261 12 24.5979 12.5268 25.5355 13.4645C26.4732 14.4021 27 15.6739 27 17V27.5C27 28.88 25.88 30 24.5 30H7.5C6.83696 30 6.20107 29.7366 5.73223 29.2678C5.26339 28.7989 5 28.163 5 27.5V4.5C5 3.11867 6.12 2 7.5 2ZM15.2933 24.7067C15.4808 24.8939 15.735 24.9991 16 24.9991C16.265 24.9991 16.5192 24.8939 16.7067 24.7067L20.7067 20.7067C20.8049 20.6151 20.8837 20.5047 20.9384 20.3821C20.993 20.2594 21.0224 20.127 21.0248 19.9927C21.0272 19.8584 21.0025 19.7251 20.9522 19.6005C20.9019 19.476 20.827 19.3629 20.7321 19.2679C20.6371 19.173 20.524 19.0981 20.3995 19.0478C20.2749 18.9975 20.1416 18.9728 20.0073 18.9752C19.873 18.9776 19.7406 19.007 19.6179 19.0616C19.4953 19.1163 19.3849 19.1951 19.2933 19.2933L17 21.5867V16C17 15.7348 16.8946 15.4804 16.7071 15.2929C16.5196 15.1054 16.2652 15 16 15C15.7348 15 15.4804 15.1054 15.2929 15.2929C15.1054 15.4804 15 15.7348 15 16V21.5867L12.7067 19.2933C12.5171 19.1167 12.2664 19.0205 12.0073 19.0251C11.7482 19.0297 11.5011 19.1346 11.3178 19.3178C11.1346 19.5011 11.0297 19.7482 11.0251 20.0073C11.0205 20.2664 11.1167 20.5171 11.2933 20.7067L15.2933 24.7067Z" fill="#3D52A0"/>
<path d="M18.9998 7.00005C19.0021 5.31812 18.3965 3.69201 17.2944 2.42139C19.5255 3.00801 21.5607 4.17669 23.1919 5.8079C24.8231 7.43912 25.9918 9.47433 26.5784 11.7054C25.3078 10.6034 23.6817 9.99772 21.9998 10.0001H19.4998C19.3672 10.0001 19.24 9.94737 19.1462 9.85361C19.0524 9.75984 18.9998 9.63266 18.9998 9.50005V7.00005Z" fill="#3D52A0"/>
</svg>
